normalP112_grf.mot
version=1
nRows=10
nColumns=19
inDegrees=yes
endheader
time	1_ground_force_vx	1_ground_force_vy	1_ground_force_vz	1_ground_force_px	1_ground_force_py	1_ground_force_pz	1_ground_torque_x	1_ground_torque_y	1_ground_torque_z	2_ground_force_vx	2_ground_force_vy	2_ground_force_vz	2_ground_force_px	2_ground_force_py	2_ground_force_pz	2_ground_torque_x	2_ground_torque_y	2_ground_torque_z
            1.390000	          -70.738518	          618.064501	           41.403961	            0.249877	            0.003778	           -0.341832	           -0.058163	            0.508190	            0.034043	           -0.028098	            0.822577	            0.023968	            0.755675	            0.001467	           -0.199486	           -0.095604	           -0.005110	           -0.029365
            1.391000	          -70.526807	          617.102612	           41.529394	            0.250407	            0.003777	           -0.342029	           -0.056362	            0.493158	            0.033188	           -0.013759	            0.183974	            0.012884	            0.755675	            0.001467	           -0.199486	            0.004932	            0.002265	           -0.028887
            1.392000	          -70.289760	          617.259154	           41.676073	            0.250889	            0.003776	           -0.341949	           -0.056321	            0.494588	            0.033394	           -0.051134	            0.822149	            0.039490	            0.755675	            0.001467	           -0.199486	           -0.095843	            0.005595	            0.053825
            1.393000	          -70.032557	          616.137431	           41.808545	            0.251607	            0.003776	           -0.342230	           -0.057995	            0.510234	            0.034622	           -0.013498	            0.343646	            0.013738	            0.755675	            0.001467	           -0.199486	            0.004933	           -0.001968	            0.012464
            1.394000	          -69.842039	          616.054810	           41.976839	            0.252039	            0.003775	           -0.342321	           -0.056878	            0.501700	            0.034185	           -0.028668	            0.503565	            0.045353	            0.755675	            0.001467	           -0.199486	           -0.061675	           -0.000881	           -0.153975
            1.395000	          -69.668269	          615.333532	           42.111132	            0.252487	            0.003774	           -0.342298	           -0.058835	            0.519648	            0.035563	           -0.028998	            0.264198	            0.021008	            0.755675	            0.001467	           -0.199486	            0.055201	            0.007292	           -0.007838
            1.396000	          -69.394644	          614.691919	           42.238396	            0.253112	            0.003773	           -0.342394	           -0.058511	            0.518288	            0.035614	           -0.013724	            0.182952	           -0.002444	            0.755675	            0.001467	           -0.199486	           -0.062545	            0.008871	            0.095567
            1.397000	          -69.229554	          613.491372	           42.393193	            0.253594	            0.003773	           -0.342554	           -0.060158	            0.533099	            0.036838	           -0.013773	            0.103799	           -0.018325	            0.755675	            0.001467	           -0.199486	           -0.012146	           -0.004532	            0.033500
            1.398000	          -69.002748	          612.530151	           42.556921	            0.254333	            0.003771	           -0.342538	           -0.061511	            0.546025	            0.037936	            0.009910	            0.583579	            0.022946	            0.755675	            0.001467	           -0.199486	            0.021602	           -0.007151	           -0.007910
            1.399000	          -68.775918	          611.648964	           42.751756	            0.254776	            0.003772	           -0.342756	           -0.061643	            0.548217	            0.038318	           -0.021933	           -0.136361	            0.011091	            0.755675	            0.001467	           -0.199486	           -0.095768	            0.001835	           -0.070668
